<?xml version="1.0" standalone="no"?>
<!DOCTYPE svg PUBLIC "-//W3C//DTD SVG 20010904//EN"
 "http://www.w3.org/TR/2001/REC-SVG-20010904/DTD/svg10.dtd">
<svg version="1.0" xmlns="http://www.w3.org/2000/svg"
 width="366.000000pt" height="251.000000pt" viewBox="0 0 366.000000 251.000000"
 preserveAspectRatio="xMidYMid meet">
<metadata>
Created by potrace 1.16, written by Peter Selinger 2001-2019
</metadata>
<g transform="translate(0.000000,251.000000) scale(0.100000,-0.100000)"
fill="#000000" stroke="none">
<path d="M1850 2468 c-134 -67 -367 -373 -647 -853 -359 -615 -450 -755 -490
-755 -28 0 -7 237 53 595 8 50 21 131 29 180 8 50 22 122 30 160 26 119 65
373 65 418 0 51 -22 87 -55 87 -27 0 -49 -28 -89 -110 -30 -61 -146 -337 -146
-346 0 -3 -6 -20 -14 -37 -27 -58 -76 -188 -175 -462 -84 -234 -207 -616 -281
-875 -12 -41 -27 -79 -34 -85 -24 -19 -36 -53 -51 -150 -20 -123 -15 -155 26
-155 25 0 32 6 48 43 10 23 22 58 26 77 4 19 18 69 30 110 13 41 34 113 48
160 121 411 233 757 371 1140 82 227 169 446 173 434 2 -5 -6 -54 -16 -109
-11 -55 -31 -161 -46 -235 -14 -74 -30 -151 -35 -170 -5 -19 -14 -71 -20 -115
-6 -44 -17 -109 -25 -145 -21 -100 -38 -298 -30 -365 18 -165 99 -199 199 -82
51 61 156 220 230 350 513 896 707 1176 870 1254 34 16 38 16 53 1 29 -29 45
-151 33 -258 -5 -52 -17 -165 -26 -250 -9 -85 -18 -158 -20 -162 -2 -3 -15
-80 -29 -170 -14 -89 -37 -230 -50 -313 -14 -82 -36 -222 -50 -311 -13 -88
-26 -167 -29 -175 -11 -29 -56 -477 -56 -550 0 -112 26 -198 66 -219 52 -28
109 56 68 101 -16 18 -16 27 5 181 11 90 32 233 46 318 42 260 74 477 99 661
13 96 26 184 29 195 14 47 39 416 39 584 0 319 -37 430 -142 430 -19 0 -55
-10 -80 -22z"/>
<path d="M2507 2095 c-9 -8 -23 -36 -33 -62 -9 -27 -30 -78 -46 -115 -30 -71
-33 -89 -18 -104 6 -6 2 -40 -10 -94 -64 -280 -160 -740 -196 -940 -42 -231
-48 -290 -32 -307 26 -25 53 14 128 179 94 209 168 340 250 443 54 69 59 64
38 -37 -18 -87 -18 -94 -2 -145 26 -82 83 -118 147 -92 17 7 56 35 85 63 32
30 52 43 52 34 0 -25 56 -78 82 -78 38 0 82 34 149 114 l63 75 17 -39 c36 -81
114 -98 201 -47 24 14 47 25 53 26 6 0 8 -39 6 -104 -1 -59 1 -105 6 -105 30
0 133 341 133 442 0 51 -9 63 -44 54 -29 -7 -62 -78 -72 -154 -6 -51 -7 -52
-67 -82 -33 -16 -68 -30 -77 -30 -33 0 -53 37 -59 108 -6 67 -6 67 -37 68 -18
1 -45 11 -62 23 -44 31 -117 29 -163 -4 -42 -32 -63 -57 -94 -116 -25 -48
-138 -159 -162 -159 -21 0 -26 45 -19 169 4 72 3 127 -3 144 -12 30 -46 42
-81 29 -63 -24 -182 -173 -276 -344 -32 -59 -60 -105 -62 -103 -2 2 8 50 22
107 14 57 33 135 41 173 8 39 25 122 39 185 92 433 154 752 155 797 1 30 -32
48 -52 28z"/>
<path d="M2152 1528 c-7 -7 -12 -34 -12 -61 0 -44 4 -54 39 -88 61 -61 72 -54
65 39 -4 42 -13 87 -20 100 -16 24 -53 29 -72 10z"/>
<path d="M3537 1522 c-39 -43 -2 -145 63 -172 17 -7 32 -11 34 -9 5 6 -19 173
-28 187 -11 18 -51 15 -69 -6z"/>
<path d="M2128 1243 c-39 -43 -77 -252 -78 -415 0 -68 10 -85 30 -49 32 61
120 372 120 426 0 52 -41 73 -72 38z"/>
</g>
</svg>
