<?xml version="1.0" standalone="no"?>
<!DOCTYPE svg PUBLIC "-//W3C//DTD SVG 20010904//EN"
 "http://www.w3.org/TR/2001/REC-SVG-20010904/DTD/svg10.dtd">
<svg version="1.0" xmlns="http://www.w3.org/2000/svg"
 width="150.000000pt" height="108.000000pt" viewBox="0 0 150.000000 108.000000"
 preserveAspectRatio="xMidYMid meet">
<metadata>
Created by potrace 1.16, written by Peter Selinger 2001-2019
</metadata>
<g transform="translate(0.000000,108.000000) scale(0.100000,-0.100000)"
fill="#000000" stroke="none">
<path d="M927 873 c-8 -13 12 -701 22 -772 10 -63 22 -84 47 -74 18 7 22 43
16 169 l-5 115 106 -3 c96 -3 108 -1 136 19 16 13 32 23 34 23 2 0 14 -24 26
-52 34 -77 36 -81 53 -91 23 -15 48 -1 48 27 0 28 -48 159 -84 226 -19 38 -28
45 -52 45 -26 0 -30 -4 -41 -49 -7 -27 -16 -53 -20 -57 -4 -4 -32 -11 -60 -15
-64 -8 -67 1 -19 59 58 72 72 119 40 131 -28 11 -32 7 -95 -74 -34 -44 -65
-77 -70 -74 -5 3 -9 94 -10 202 -1 227 -4 246 -41 250 -14 2 -28 -1 -31 -5z"/>
<path d="M241 851 c-15 -28 -13 -126 3 -188 16 -59 48 -102 108 -145 22 -16
37 -35 34 -41 -2 -7 -21 -50 -41 -95 -46 -103 -54 -152 -31 -187 14 -21 24
-25 67 -25 39 0 55 5 74 24 30 31 57 122 54 184 -4 52 6 55 34 10 14 -23 17
-53 17 -164 0 -74 4 -144 10 -154 14 -26 73 -44 98 -31 46 25 53 106 17 218
-13 42 -22 79 -20 81 2 2 17 -5 33 -17 38 -26 78 -27 92 -2 5 11 12 39 14 63
3 24 5 45 5 48 1 3 10 -10 21 -27 22 -36 55 -44 64 -15 8 24 -8 75 -34 112
-40 56 -113 32 -125 -41 l-7 -40 -56 6 c-50 6 -61 12 -92 46 -28 33 -44 41
-80 46 -29 4 -55 15 -75 33 -16 15 -45 37 -64 50 -45 31 -64 78 -70 180 -5 69
-9 85 -23 88 -9 2 -21 -6 -27 -17z"/>
</g>
</svg>
